<svg width="93" height="93" viewBox="0 0 93 93" fill="none" xmlns="http://www.w3.org/2000/svg">
<path d="M27.9322 38.7381C29.3329 38.7329 30.7335 38.7303 32.1342 38.7251C32.3439 38.9193 32.5537 39.1135 32.766 39.3077C32.5148 39.4863 32.5562 39.7556 32.5562 40.0093C32.5562 41.7388 32.7996 43.4476 33.0585 45.1486C33.4314 47.616 34.0709 50.0212 34.8942 52.3773C33.9958 52.6207 33.1 52.8718 32.2015 53.1074C28.5432 54.0628 26.2493 57.1386 26.3554 60.9626C26.4486 64.388 29.0791 67.3602 32.6365 68.0541C34.1071 68.3415 35.5932 68.1603 37.0716 68.181C38.0684 68.1939 38.7208 67.5648 38.7467 66.6871C38.7752 65.7705 38.1046 65.1181 37.0664 65.0974C36.036 65.0767 35.0029 65.1077 33.9725 65.087C31.6475 65.0456 29.7782 63.3731 29.4778 61.0869C29.1956 58.9432 30.5678 56.846 32.7271 56.2065C33.8663 55.8674 35.034 55.6188 36.1861 55.3288C36.4735 56.292 36.9732 57.1645 37.4625 58.0266C38.3609 59.6086 39.1739 61.2578 40.4788 62.573C40.3183 63.5491 40.6445 64.2715 41.5662 64.7013C41.8562 64.8359 42.1332 65.0042 42.4077 65.1751C42.8685 65.4624 43.4588 65.5375 43.4433 66.3634C43.4252 67.1894 43.2983 67.7874 42.4594 68.0955C42.1306 68.2146 41.8381 68.4321 41.5351 68.6159C40.5461 69.2166 40.2173 69.9208 40.5358 70.7493C40.8413 71.5442 41.5688 71.8108 42.7339 71.5545C43.2258 72.4244 43.7177 73.2944 44.2096 74.1643C44.1294 74.2653 44.0543 74.3688 43.9689 74.4646C43.407 75.1119 43.3578 75.8265 43.8679 76.4867C44.3831 77.1547 45.0925 77.2738 45.8511 76.8569C46.2731 76.6265 46.6874 76.3754 47.1068 76.1372C48.5334 75.3242 49.6001 75.9378 49.6001 77.5663C49.6001 78.0168 49.5871 78.4673 49.6027 78.9178C49.6415 79.9949 50.2085 80.5774 51.2985 80.5878C53.261 80.6085 55.2261 80.6085 57.1886 80.5878C58.3175 80.5774 58.8664 79.9845 58.8974 78.8298C58.9156 78.123 58.9259 77.4162 58.9389 76.7068C59.4049 76.6705 59.8217 76.8621 60.2463 77.0071C63.6639 78.1903 67.2032 78.7884 70.7916 79.0136C73.0079 79.1509 75.2396 79.0369 77.4636 79.0369C77.474 79.2311 77.4766 79.4227 77.4947 79.6143C77.7717 82.4571 76.0474 83.7801 73.4661 83.7283C67.664 83.6118 61.8593 83.6869 56.0546 83.6947C54.9232 83.6947 54.2397 84.3109 54.2526 85.2636C54.2656 86.1802 54.9284 86.786 56.0003 86.7886C62.1907 86.7964 68.3838 86.8404 74.5717 86.7679C77.1064 86.7368 78.9317 85.4138 80.0501 83.1147C80.687 81.8072 80.5576 80.4143 80.6223 79.0369C83.7007 79.0369 86.7791 79.0369 89.8575 79.0369C89.8679 82.2966 89.842 85.5588 89.9119 88.8158C89.9326 89.735 89.64 89.911 88.7831 89.911C62.9597 89.8903 37.1363 89.8929 11.3129 89.8929C10.6346 89.8929 9.96403 89.8748 9.29605 89.7194C6.21765 89.0074 4.18005 87.1226 3.37485 84.1012C2.55671 81.0227 3.43699 78.3042 5.85777 76.2511C8.24489 74.2264 11.023 73.7889 13.915 75.0523C16.8768 76.3469 18.3992 78.7262 18.5882 81.9393C18.6348 82.7289 18.8963 83.3218 19.6627 83.6015C20.2685 83.8215 20.8096 83.6558 21.2601 83.2105C21.6899 82.7885 21.7055 82.2422 21.7055 81.6804C21.7003 74.8375 21.7029 67.992 21.7029 61.1491C21.7029 54.4977 21.7132 47.849 21.6873 41.1977C21.6847 40.4857 21.8504 40.2346 22.5935 40.276C23.7198 40.3407 24.8512 40.2967 25.9826 40.2915C27.2202 40.2837 27.6215 39.9601 27.9296 38.7381H27.9322ZM37.1984 80.5878C37.1984 78.0272 35.0806 75.9326 32.5045 75.943C29.9982 75.9533 27.8985 78.0764 27.9089 80.5878C27.9192 83.1199 29.9957 85.217 32.5071 85.2352C35.078 85.2533 37.1984 83.151 37.1984 80.5878Z" fill="#7A97D1"/>
<path d="M27.9322 38.7381C27.6241 39.9601 27.2228 40.2838 25.9853 40.2915C24.8564 40.2993 23.7224 40.3407 22.5962 40.276C21.8531 40.2346 21.6874 40.4857 21.69 41.1977C21.7159 47.849 21.7055 54.4977 21.7055 61.1491C21.7055 67.992 21.7055 74.8375 21.7081 81.6804C21.7081 82.2422 21.6952 82.7885 21.2628 83.2105C20.8123 83.6532 20.2686 83.819 19.6653 83.6015C18.899 83.3244 18.6375 82.7315 18.5909 81.9393C18.4019 78.7262 16.8795 76.3469 13.9176 75.0524C11.0256 73.7889 8.24756 74.2264 5.86044 76.2511C3.43966 78.3042 2.55937 81.0228 3.37752 84.1012C4.18013 87.1252 6.21773 89.0074 9.29872 89.7194C9.9667 89.8748 10.6399 89.8929 11.3156 89.8929C37.139 89.8929 62.9624 89.8877 88.7857 89.911C89.6427 89.911 89.9353 89.735 89.9146 88.8159C89.8447 85.5562 89.8705 82.2966 89.8602 79.0369C89.8705 78.6512 89.8887 78.2628 89.8913 77.877C89.8913 66.8657 89.8938 55.857 89.8913 44.8457C89.8913 42.8133 89.8731 40.7783 89.8628 38.7459C90.1605 37.6222 90.7586 37.1044 91.6259 37.2131C92.5062 37.3245 92.9904 37.9847 92.9904 39.1239C92.9904 56.4266 92.993 73.7294 92.9904 91.0347C92.9904 92.4716 92.4518 92.9972 90.9864 92.9972C64.3553 92.9972 37.7267 93.005 11.0955 92.9946C4.75749 92.992 0.0169088 88.2488 0.0117306 81.916C-0.00121472 65.5168 -0.00639285 49.1177 0.0117306 32.7185C0.0194978 26.3364 5.04488 21.4975 11.3493 21.7201C16.8355 21.9143 21.4544 26.4814 21.6745 31.9677C21.734 33.4823 21.7185 35.0021 21.6874 36.5193C21.6771 37.0655 21.835 37.2338 22.3839 37.2157C23.5774 37.1769 24.771 37.1976 25.9671 37.2054C27.2073 37.2131 27.5983 37.5264 27.9271 38.7484L27.9322 38.7381ZM12.4134 25.0057C12.0354 24.9383 11.6574 24.827 11.2768 24.8115C6.75884 24.6095 3.1212 28.0659 3.11602 32.6279C3.10049 46.3733 3.11085 60.1212 3.11602 73.8666C3.11602 74.0116 3.04353 74.1876 3.23253 74.3119C8.32523 70.2005 13.4412 70.2367 18.5779 74.3611V69.9208C18.5883 69.5351 18.609 69.1493 18.609 68.7609C18.609 58.0215 18.609 47.282 18.609 36.5451C18.609 35.0953 18.6401 33.6428 18.5909 32.1929C18.4718 28.6614 15.7921 25.5649 12.416 25.0083L12.4134 25.0057Z" fill="#323233"/>
<path d="M89.8653 38.7407C89.8757 40.7731 89.8938 42.8081 89.8938 44.8405C89.8964 55.8518 89.8938 66.8605 89.8938 77.8719C89.8938 78.2576 89.8757 78.646 89.8628 79.0318C86.7844 79.0318 83.706 79.0318 80.6275 79.0318C80.6146 78.4829 80.6301 77.934 80.5809 77.3877C80.5033 76.5333 79.856 75.9456 79.0456 75.9456C78.2353 75.9456 77.588 76.5333 77.5103 77.3877C77.4611 77.934 77.4767 78.4829 77.4637 79.0318C75.2397 79.0318 73.0079 79.1483 70.7917 79.0085C67.2032 78.7858 63.664 78.1877 60.2464 77.0019C59.8244 76.8543 59.4075 76.6628 58.9389 76.7016C59.537 75.7669 60.3344 75.5184 61.1759 76.0051C61.5953 76.2459 62.0096 76.4971 62.4342 76.7275C63.5682 77.3385 64.2698 77.1469 64.93 76.0258C65.6834 74.7468 66.4213 73.4627 67.1592 72.1759C68.5651 69.7189 68.5055 69.5066 66.033 68.0722C64.6323 67.2593 64.6323 66.0139 66.0381 65.201C66.4576 64.9576 66.89 64.7401 67.2913 64.4708C68.0602 63.953 68.3088 63.1789 67.8609 62.3633C66.8485 60.5277 65.8051 58.7102 64.7125 56.9237C64.2491 56.1677 63.4983 55.989 62.6853 56.4111C62.0846 56.7243 61.5125 57.0868 60.9196 57.413C60.7073 57.5295 60.5183 57.7651 60.2231 57.5891C59.4982 57.1567 58.5842 56.8849 58.8845 55.6991C58.9778 55.334 58.9027 54.9275 58.8975 54.5418C58.8768 53.2653 58.3331 52.7061 57.0722 52.6957C55.6197 52.6828 54.1673 52.6932 52.7148 52.6932C49.7115 52.6932 49.6001 52.8019 49.5976 55.769C49.5976 57.3095 48.5102 57.9516 47.1871 57.1955C46.8506 57.004 46.5217 56.802 46.1826 56.6156C44.901 55.9062 44.2356 56.0952 43.4848 57.3846C42.4802 59.1115 41.4782 60.8435 40.4763 62.5705C39.1714 61.2526 38.361 59.606 37.46 58.0241C36.9707 57.1619 36.4684 56.292 36.1836 55.3262C39.262 54.244 41.8951 52.5197 43.9146 49.9254C44.1605 49.607 44.4816 49.5293 44.8285 49.4568C49.5147 48.4885 52.3523 45.2962 52.6786 40.5918C52.707 40.1957 52.7873 39.9368 53.1886 39.7892C53.7737 39.5718 54.1854 39.0902 54.6721 38.7251C55.5524 38.7303 56.4353 38.7355 57.3156 38.7407C57.6289 39.9549 58.0327 40.2889 59.2522 40.2915C61.5953 40.2993 63.9384 40.2993 66.2815 40.2915C67.501 40.2889 67.9023 39.9575 68.2181 38.7407C69.2305 38.7407 70.2454 38.7407 71.2577 38.7407C71.2681 44.2243 71.281 49.7105 71.2836 55.1942C71.2836 55.7845 71.382 56.3308 71.6046 56.8849C73.5568 61.7238 75.496 66.5706 77.4197 71.4225C77.7278 72.1992 78.1161 72.8309 79.0404 72.8309C79.9647 72.8309 80.3531 72.1966 80.6612 71.4225C82.5719 66.6016 84.5008 61.786 86.4426 56.9781C86.6912 56.3645 86.7973 55.756 86.7973 55.101C86.7973 49.6484 86.8102 44.1958 86.8206 38.7433C87.8329 38.7433 88.8478 38.7433 89.8602 38.7433L89.8653 38.7407Z" fill="#C1CFEA"/>
<path d="M86.8258 38.7407C86.8155 44.1932 86.7999 49.6458 86.8025 55.0984C86.8025 55.756 86.6964 56.3645 86.4478 56.9755C84.506 61.786 82.5772 66.599 80.6664 71.4199C80.3583 72.1966 79.97 72.8309 79.0457 72.8283C78.1214 72.8283 77.733 72.1966 77.4249 71.4199C75.5038 66.568 73.562 61.7238 71.6099 56.8823C71.3872 56.3282 71.2888 55.7819 71.2888 55.1916C71.2888 49.708 71.2733 44.2217 71.2629 38.7381C71.2733 33.5418 71.2862 28.343 71.2914 23.1467C71.2966 17.9815 71.2681 12.8163 71.3018 7.64854C71.3277 4.00572 73.9349 0.872943 77.4275 0.173894C81.0755 -0.556223 84.6199 1.24059 86.1112 4.58826C86.5773 5.63165 86.7922 6.73201 86.7922 7.87637C86.787 12.8474 86.7922 17.821 86.7896 22.792C86.7896 24.0969 86.5022 24.4645 85.2206 24.8451C84.0115 24.5526 83.6672 24.128 83.6594 22.9059C83.6542 22.1629 83.6594 21.4198 83.6594 20.6793C83.6594 18.6184 83.6594 18.6624 81.614 18.6055C80.8037 18.5822 80.6069 18.8048 80.6095 19.6126C80.638 30.4608 80.6276 41.309 80.6276 52.1572C80.6276 54.2129 80.6276 54.1689 82.6781 54.2259C83.4989 54.2492 83.6801 54.011 83.6749 53.2136C83.6439 45.4334 83.6542 37.6507 83.6568 29.8705C83.6568 28.5475 83.9804 28.1332 85.218 27.8355C86.5203 28.2213 86.7844 28.5786 86.7896 29.9715C86.7999 32.8945 86.8103 35.8176 86.8207 38.7381L86.8258 38.7407ZM78.1965 12.4694C77.1349 12.4513 76.0734 12.4305 75.0145 12.415C73.997 12.3995 74.3698 13.2383 74.4604 13.5956C74.621 14.2222 73.7226 15.2915 75.0171 15.4468C76.0605 15.5737 77.1349 15.439 78.1965 15.4209C79.2528 15.4442 80.3091 15.4831 81.3655 15.4882C83.9727 15.4986 83.9649 15.4934 83.7034 12.8862C83.6672 12.516 83.5584 12.3891 83.1934 12.3969C81.5286 12.4305 79.8638 12.4487 78.1965 12.472V12.4694ZM78.2923 9.26153C79.8949 9.27188 81.4975 9.28742 83.1002 9.29259C83.3746 9.29259 83.6309 9.35732 83.7086 8.90941C84.2109 6.0459 82.3079 3.45166 79.434 3.14097C76.2521 2.92866 73.7562 5.80512 74.3879 8.91459C74.4786 9.35732 74.7426 9.29259 75.0171 9.29C76.1071 9.28483 77.1997 9.26929 78.2897 9.25894L78.2923 9.26153ZM74.4708 36.3173V52.1986C74.4708 54.1741 74.4708 54.1197 76.4022 54.1948C77.2825 54.2285 77.4456 53.9566 77.443 53.1281C77.4146 42.3136 77.4223 31.5016 77.4223 20.6871C77.4223 18.6495 77.4223 18.6883 75.3433 18.6469C74.5977 18.6314 74.4449 18.8566 74.4501 19.5634C74.4812 25.1481 74.4656 30.7327 74.4656 36.3173H74.4708ZM82.8335 57.3845H75.2372C75.3381 57.6719 75.4132 57.9127 75.5038 58.1457C76.3867 60.4112 76.3893 60.4267 78.8437 60.4034C79.7991 60.3956 80.9978 60.8047 81.6425 60.2584C82.3157 59.6888 82.4658 58.4953 82.8413 57.5761C82.8516 57.5502 82.8413 57.514 82.8335 57.3845Z" fill="#323233"/>
<path d="M54.6773 38.7251C54.1906 39.0902 53.7789 39.5718 53.1938 39.7892C52.7925 39.9394 52.7122 40.1957 52.6838 40.5919C52.3575 45.2962 49.5173 48.4885 44.8337 49.4568C44.4868 49.5293 44.1657 49.607 43.9198 49.9254C41.9003 52.5197 39.2672 54.244 36.1888 55.3262C35.0341 55.6162 33.869 55.8674 32.7298 56.2039C30.5705 56.8434 29.1983 58.9406 29.4805 61.0843C29.7809 63.3705 31.6502 65.043 33.9751 65.0844C35.0056 65.1026 36.0386 65.0715 37.0691 65.0948C38.1073 65.1155 38.7779 65.7705 38.7494 66.6845C38.7235 67.5622 38.0711 68.1913 37.0743 68.1784C35.5959 68.1577 34.1072 68.3389 32.6392 68.0515C29.0792 67.3576 26.4487 64.3828 26.3581 60.9601C26.2545 57.1334 28.5459 54.0602 32.2042 53.1048C33.1052 52.8692 33.9984 52.6181 34.8969 52.3747C37.038 51.8569 38.8296 50.7539 40.4608 49.1591C40.1216 49.0011 39.9222 48.9105 39.7229 48.8173C36.5124 47.3364 34.5965 44.8327 34.2107 41.3427C34.0865 40.2294 33.6903 39.6753 32.7686 39.3077C32.5589 39.1135 32.3492 38.9193 32.1369 38.7251C30.1796 35.8047 30.7285 33.3528 33.7577 31.4032C34.4722 30.945 34.0891 30.5178 33.6722 30.1113C31.6346 28.1177 30.2702 25.7332 29.7705 22.9292C28.7426 17.1634 30.511 12.3451 35.236 8.912C39.9171 5.50737 45.0098 5.29248 50.1698 7.96699C51.252 8.52882 51.4099 9.11136 50.9879 10.3878C50.2008 11.2007 49.3905 11.0842 48.4532 10.5871C45.5949 9.06734 42.6149 8.84468 39.5805 10.0072C31.8832 12.9509 30.0993 22.8024 36.2716 28.2627C36.8568 28.7805 37.3254 29.3294 37.2063 30.1631C37.1053 30.8621 37.3953 31.0434 38.0607 31.0019C38.8581 30.9527 38.4957 30.4401 38.4594 30.1035C38.0581 26.4167 37.6206 22.735 37.227 19.0482C37.0639 17.5103 38.1021 16.6119 39.5028 17.254C42.1281 18.4553 44.6292 18.476 47.2622 17.2643C48.7069 16.5989 49.74 17.5258 49.5639 19.1181C49.1574 22.8024 48.7277 26.4866 48.3238 30.1734C48.2901 30.4919 48.0001 30.9916 48.7251 30.989C49.2299 30.989 49.7193 31.0615 49.6002 30.277C49.4785 29.4692 49.8487 28.8763 50.4546 28.343C54.4003 24.8658 55.3634 19.6851 52.9142 14.9989C52.4326 14.0772 52.386 13.3005 53.1524 12.5496C54.4443 12.1043 54.9777 12.3011 55.6146 13.4532C58.6024 18.8566 57.6496 25.5908 53.2792 29.9585C52.3964 30.8414 52.4145 31.0149 53.4553 31.6207C55.9719 33.0835 56.4742 36.0014 54.6748 38.7225L54.6773 38.7251ZM52.6372 35.7011C52.5465 34.6085 52.0805 34.1062 51.0242 34.1062C46.0687 34.0985 41.1132 34.1166 36.1577 34.1269C34.8321 34.1192 34.1279 34.6473 34.1279 35.6441C34.1279 36.5296 34.77 37.1665 35.772 37.1691C40.8724 37.182 45.9729 37.1846 51.0734 37.1665C51.9925 37.1639 52.5957 36.7031 52.6397 35.7037L52.6372 35.7011ZM43.4071 40.3511C41.6 40.3511 39.7928 40.3744 37.9856 40.3381C37.3565 40.3252 37.2063 40.5401 37.2917 41.1252C37.7138 44.0793 40.4116 46.4613 43.3709 46.4716C46.5062 46.4794 49.0668 44.245 49.5096 41.1356C49.5898 40.5685 49.4785 40.3226 48.8286 40.3355C47.0215 40.377 45.2143 40.3485 43.4071 40.3485V40.3511ZM43.3735 30.9838C43.7929 30.9838 44.2123 30.9683 44.6318 30.989C44.9994 31.0071 45.1211 30.857 45.1599 30.4919C45.4758 27.5145 45.802 24.537 46.1567 21.5622C46.2422 20.8476 45.9315 20.8709 45.468 21.1013C44.0725 21.7952 42.69 21.7641 41.3074 21.0806C40.7223 20.7932 40.5902 21.003 40.6575 21.5958C40.9579 24.1875 41.2245 26.7818 41.5119 29.3734C41.6906 30.9864 41.6983 30.9838 43.3761 30.9838H43.3735Z" fill="#323233"/>
<path d="M53.1524 12.5548C52.386 13.3057 52.4327 14.0824 52.9142 15.0041C55.3635 19.6877 54.4003 24.871 50.4546 28.3481C49.8488 28.8815 49.4811 29.4744 49.6002 30.2822C49.7167 31.0667 49.2274 30.9916 48.7251 30.9942C48.0002 30.9942 48.2901 30.4945 48.3238 30.1786C48.7277 26.4918 49.1575 22.8101 49.564 19.1233C49.74 17.5284 48.707 16.6041 47.2623 17.2695C44.6292 18.4786 42.1307 18.4579 39.5028 17.2592C38.1022 16.6197 37.0639 17.5155 37.227 19.0534C37.6206 22.7402 38.0581 26.4219 38.4594 30.1087C38.4957 30.4427 38.8582 30.9553 38.0607 31.0071C37.3953 31.0485 37.108 30.8699 37.2063 30.1683C37.3254 29.3372 36.8568 28.7857 36.2717 28.2679C30.1019 22.8075 31.8858 12.9561 39.5805 10.0124C42.6175 8.84987 45.5975 9.07512 48.4533 10.5923C49.3905 11.0894 50.2009 11.2059 50.988 10.393C51.8527 10.9703 52.5725 11.6953 53.1524 12.56V12.5548Z" fill="#DBF4A7"/>
<path d="M85.223 27.8381C83.9855 28.1358 83.6618 28.5501 83.6618 29.8731C83.6618 37.6533 83.6489 45.436 83.68 53.2161C83.6825 54.0136 83.5013 54.2518 82.6832 54.2285C80.6326 54.1715 80.6326 54.2129 80.6326 52.1598C80.6326 41.3116 80.643 30.4634 80.6145 19.6152C80.6145 18.81 80.8087 18.5874 81.6191 18.6081C83.6644 18.665 83.6644 18.6236 83.6644 20.6819C83.6644 21.425 83.6592 22.168 83.6644 22.9085C83.6748 24.1331 84.0165 24.5552 85.2256 24.8477C85.2256 25.8419 85.2256 26.8387 85.2256 27.8329L85.223 27.8381Z" fill="#DBF4A7"/>
<path d="M68.2259 38.7407C67.9075 39.9575 67.5088 40.2889 66.2893 40.2915C63.9462 40.2993 61.6031 40.2993 59.26 40.2915C58.0405 40.2889 57.6366 39.9549 57.3234 38.7407C57.6444 37.5238 58.0379 37.2002 59.2626 37.195C61.6031 37.1872 63.9462 37.1872 66.2867 37.195C67.5088 37.1976 67.9023 37.5212 68.2259 38.7407Z" fill="#323233"/>
<path d="M52.6786 5.58504C51.863 5.56951 51.1588 4.84457 51.1588 4.02643C51.1588 3.14873 51.8889 2.46263 52.7796 2.50146C53.6236 2.53512 54.2761 3.23935 54.2476 4.08339C54.2191 4.90671 53.4916 5.60317 52.6786 5.58504Z" fill="#323233"/>
<path d="M59.5265 9.29778C60.368 9.31072 61.036 9.99424 61.0386 10.8434C61.0386 11.7315 60.3136 12.4305 59.4359 12.3891C58.6126 12.3503 57.9239 11.6124 57.9524 10.7994C57.9809 9.97611 58.7032 9.28742 59.5265 9.30036V9.29778Z" fill="#323233"/>
<path d="M27.2617 27.9002C28.085 27.8795 28.8125 28.5579 28.8488 29.3838C28.885 30.1941 28.1989 30.945 27.3808 30.9916C26.5057 31.0408 25.7704 30.3417 25.7626 29.4563C25.7574 28.6045 26.4151 27.9209 27.2591 27.8976L27.2617 27.9002Z" fill="#323233"/>
<path d="M59.5317 27.9002C60.3758 27.9184 61.0411 28.5993 61.0386 29.4485C61.0386 30.334 60.3033 31.0356 59.4307 30.9916C58.6126 30.9502 57.9239 30.2045 57.9524 29.3916C57.9835 28.5656 58.7058 27.8821 59.5317 27.8977V27.9002Z" fill="#323233"/>
<path d="M35.6477 4.05491C35.6399 4.88341 34.9357 5.58505 34.1098 5.59023C33.2891 5.59541 32.5745 4.89377 32.5564 4.07045C32.5382 3.19016 33.2554 2.48335 34.1435 2.50665C34.9927 2.52736 35.6555 3.21346 35.6477 4.0575V4.05491Z" fill="#323233"/>
<path d="M27.3108 12.3943C26.472 12.4021 25.7833 11.7263 25.7651 10.8823C25.747 10.0305 26.3995 9.33143 27.2383 9.30036C28.1005 9.26929 28.8591 10.002 28.8513 10.859C28.8435 11.6797 28.1341 12.3865 27.3108 12.3943Z" fill="#323233"/>
<path d="M63.5423 20.1512C63.5371 20.9823 62.8458 21.6787 62.0147 21.6891C61.1448 21.6994 60.4224 20.959 60.4561 20.089C60.4872 19.2528 61.1966 18.5848 62.0302 18.6029C62.8639 18.621 63.5474 19.3227 63.5423 20.1538V20.1512Z" fill="#323233"/>
<path d="M24.7815 18.6003C25.6152 18.5874 26.322 19.2631 26.3505 20.0968C26.3789 20.9641 25.6514 21.7046 24.7815 21.6891C23.9478 21.6761 23.2617 20.9771 23.2643 20.1434C23.2643 19.3071 23.9452 18.6132 24.7841 18.6003H24.7815Z" fill="#323233"/>
<path d="M43.4124 3.08919C42.5787 3.09437 41.8771 2.41344 41.859 1.57976C41.8382 0.707247 42.5658 -0.0202809 43.4383 0.000431631C44.272 0.0211442 44.9529 0.725371 44.9451 1.55646C44.9374 2.38755 44.2435 3.08142 43.4124 3.08919Z" fill="#323233"/>
<path d="M40.4814 62.5705C41.4834 60.841 42.4854 59.1115 43.4899 57.3846C44.2408 56.0952 44.9036 55.9036 46.1877 56.6156C46.5269 56.802 46.8557 57.004 47.1923 57.1956C48.5153 57.9516 49.6027 57.3095 49.6027 55.769C49.6027 52.8019 49.714 52.6932 52.72 52.6932C54.1724 52.6932 55.6249 52.6828 57.0774 52.6958C58.3382 52.7061 58.8819 53.2679 58.9027 54.5418C58.9078 54.9301 58.9803 55.3366 58.8897 55.6991C58.5894 56.8849 59.5033 57.1593 60.2283 57.5891C60.5234 57.7651 60.715 57.5295 60.9247 57.413C61.5176 57.0868 62.0898 56.7243 62.6905 56.4111C63.5034 55.9865 64.2569 56.1677 64.7177 56.9237C65.8103 58.7102 66.8537 60.5303 67.866 62.3633C68.3139 63.1763 68.0654 63.9504 67.2964 64.4708C66.8977 64.7401 66.4627 64.9602 66.0433 65.201C64.6374 66.0139 64.6374 67.2593 66.0381 68.0722C68.5107 69.5066 68.5702 69.7189 67.1644 72.1759C66.4265 73.4627 65.6886 74.7494 64.9352 76.0259C64.275 77.1469 63.5733 77.3385 62.4393 76.7275C62.0147 76.4971 61.6005 76.2459 61.181 76.0051C60.337 75.5184 59.5396 75.7669 58.9441 76.7016C58.9311 77.4084 58.9208 78.1152 58.9027 78.8246C58.8742 79.9794 58.3227 80.5723 57.1939 80.5826C55.2314 80.6033 53.2662 80.6033 51.3037 80.5826C50.2137 80.5723 49.6467 79.9923 49.6079 78.9127C49.5924 78.4622 49.6053 78.0117 49.6053 77.5612C49.6053 75.9301 48.5386 75.319 47.112 76.132C46.6926 76.3702 46.2784 76.6187 45.8563 76.8518C45.0977 77.2686 44.3883 77.1469 43.8731 76.4815C43.3631 75.8239 43.4123 75.1093 43.9741 74.4595C44.0569 74.3637 44.1346 74.2601 44.2149 74.1591C45.222 73.5844 46.2292 73.0122 47.2363 72.44C47.9095 72.0568 48.5904 71.9947 49.2247 72.4969C49.9911 73.1028 50.8351 73.5637 51.7283 73.9417C52.3937 74.2239 52.6915 74.7417 52.7381 75.4537C52.7821 76.1139 52.417 77.0149 52.9348 77.367C53.4009 77.6854 54.2449 77.4524 54.9233 77.4602C54.9543 77.4602 54.988 77.455 55.0191 77.4602C55.5964 77.5534 55.8657 77.3463 55.7802 76.7275C55.7388 76.4427 55.788 76.1475 55.7699 75.8576C55.7052 74.8142 56.1686 74.1462 57.155 73.7967C57.7945 73.5688 58.4133 73.2581 58.913 72.7999C59.8036 71.9843 60.6917 72.0335 61.6341 72.6678C61.8749 72.8284 62.139 72.9552 62.3798 73.1183C62.7189 73.3513 62.9649 73.3022 63.1513 72.9267C63.2808 72.6678 63.4361 72.4219 63.5811 72.1707C64.4018 70.7364 64.4122 70.7157 62.9986 69.9131C62.1053 69.4082 61.6678 68.7557 61.9215 67.6942C62.0794 67.034 62.0354 66.3427 61.9448 65.6696C61.7662 64.344 61.9137 64.0281 63.1073 63.3291C63.9841 62.8164 64.1723 62.1269 63.6717 61.2604C62.8821 59.8908 62.8639 59.8623 61.5383 60.6623C60.627 61.2112 59.8192 61.2733 58.9803 60.5277C58.4496 60.0565 57.8152 59.7095 57.1395 59.4765C56.1375 59.1322 55.7595 58.4487 55.7854 57.4027C55.8268 55.7949 55.7906 55.7923 54.1828 55.7923C52.7018 55.7923 52.663 55.7923 52.7096 57.3354C52.7433 58.415 52.3704 59.1296 51.3219 59.4843C50.6772 59.7018 50.0791 60.0461 49.5716 60.4966C48.7147 61.2552 47.8836 61.25 46.9334 60.6494C45.6466 59.839 45.6259 59.8727 44.8595 61.2164C44.1009 62.542 44.088 62.5679 45.455 63.3368C46.3819 63.8572 46.8479 64.5097 46.5813 65.623C46.4156 66.3117 46.4389 67.0444 46.589 67.7408C46.7962 68.6936 46.5036 69.3719 45.657 69.8483C44.6757 70.4024 43.7048 70.9798 42.7313 71.5468C41.5637 71.8031 40.8361 71.5364 40.5332 70.7416C40.2148 69.9156 40.5436 69.2114 41.5326 68.6082C41.8355 68.4243 42.1281 68.2069 42.4569 68.0878C43.2957 67.7797 43.4252 67.1816 43.4407 66.3557C43.4589 65.5298 42.866 65.4521 42.4051 65.1673C42.1333 64.9964 41.8562 64.8281 41.5637 64.6935C40.642 64.2637 40.3157 63.5414 40.4763 62.5653L40.4814 62.5705Z" fill="#323233"/>
<path d="M42.734 71.5493C43.7075 70.9823 44.6758 70.4024 45.6597 69.8509C46.5063 69.3745 46.7988 68.6936 46.5917 67.7434C46.4416 67.047 46.4183 66.3142 46.584 65.6256C46.8506 64.5148 46.3846 63.8598 45.4577 63.3394C44.0881 62.573 44.1036 62.5446 44.8622 61.219C45.6312 59.8752 45.6519 59.8416 46.9361 60.652C47.8863 61.25 48.7173 61.2552 49.5743 60.4992C50.0818 60.0487 50.6799 59.7044 51.3245 59.4869C52.3731 59.1296 52.7459 58.415 52.7123 57.3379C52.6631 55.7949 52.7045 55.7949 54.1855 55.7949C55.7907 55.7949 55.8295 55.7949 55.7881 57.4053C55.7596 58.4512 56.1402 59.1348 57.1422 59.4791C57.8179 59.7121 58.4497 60.0591 58.983 60.5303C59.8219 61.2733 60.6297 61.2138 61.541 60.6649C62.8666 59.8675 62.8821 59.8959 63.6744 61.263C64.175 62.1294 63.9868 62.819 63.11 63.3316C61.9164 64.0281 61.7688 64.344 61.9475 65.6722C62.0381 66.3453 62.0847 67.0366 61.9242 67.6968C61.6679 68.7609 62.108 69.4108 63.0012 69.9156C64.4149 70.7183 64.4045 70.739 63.5838 72.1733C63.4388 72.4244 63.2834 72.6704 63.154 72.9293C62.9676 73.3073 62.7216 73.3539 62.3825 73.1209C62.1443 72.9578 61.8776 72.8335 61.6368 72.6704C60.6944 72.0387 59.8063 71.9869 58.9157 72.8025C58.416 73.2607 57.7972 73.574 57.1577 73.7992C56.1713 74.1488 55.7078 74.8167 55.7726 75.8601C55.7907 76.1501 55.7415 76.4453 55.7829 76.7301C55.8709 77.3489 55.6017 77.556 55.0217 77.4628C54.9907 77.4576 54.957 77.4628 54.9259 77.4628C54.2476 77.4524 53.4061 77.688 52.9375 77.3696C52.4197 77.0175 52.7848 76.1165 52.7408 75.4562C52.6942 74.7443 52.3964 74.2264 51.731 73.9442C50.8352 73.5662 49.9938 73.1054 49.2274 72.4995C48.5931 71.9973 47.9121 72.0594 47.239 72.4426C46.2318 73.0148 45.2247 73.5895 44.2175 74.1617C43.7256 73.2918 43.2337 72.4219 42.7418 71.5519L42.734 71.5493ZM54.2657 61.9983C51.7233 61.9931 49.6261 64.0514 49.6002 66.5757C49.5743 69.1519 51.6559 71.2749 54.2321 71.293C56.7564 71.3137 58.8743 69.2347 58.8976 66.713C58.9209 64.1291 56.8341 62.0034 54.2683 61.9957L54.2657 61.9983Z" fill="#DBF4A7"/>
<path d="M77.4663 79.0343C77.4792 78.4855 77.4663 77.9366 77.5129 77.3903C77.5879 76.5359 78.2352 75.9482 79.0482 75.9482C79.8586 75.9482 80.5084 76.5359 80.5835 77.3903C80.6327 77.934 80.6172 78.4855 80.6301 79.0343C80.5654 80.4091 80.6922 81.8047 80.0579 83.1121C78.9394 85.4112 77.1141 86.7342 74.5795 86.7653C68.389 86.8378 62.1985 86.7938 56.0081 86.786C54.9362 86.786 54.2734 86.1802 54.2604 85.2611C54.2475 84.3109 54.931 83.6947 56.0624 83.6921C61.8671 83.6843 67.6718 83.6092 73.4739 83.7257C76.0552 83.7775 77.7821 82.4519 77.5025 79.6117C77.4844 79.4201 77.4818 79.2259 77.4714 79.0343H77.4663Z" fill="#323233"/>
<path d="M37.1959 80.5878C37.1959 83.151 35.0728 85.2533 32.5045 85.2352C29.9931 85.2171 27.9166 83.1199 27.9063 80.5878C27.8959 78.0764 29.9957 75.9534 32.5019 75.943C35.078 75.9327 37.1959 78.0272 37.1959 80.5878ZM34.089 80.6033C34.0967 79.7645 33.3951 79.0577 32.5537 79.0525C31.707 79.0473 31.0209 79.7489 31.0365 80.6033C31.0494 81.406 31.7174 82.0817 32.52 82.1024C33.3744 82.1257 34.0812 81.45 34.089 80.6007V80.6033Z" fill="#323233"/>
<path d="M32.7661 39.3077C33.6878 39.6753 34.0865 40.232 34.2082 41.3427C34.594 44.8327 36.5099 47.3364 39.7203 48.8173C39.9197 48.9105 40.1191 49.0011 40.4582 49.1591C38.8271 50.7539 37.0355 51.8569 34.8943 52.3747C34.071 50.0186 33.4315 47.6134 33.0587 45.146C32.8023 43.445 32.5538 41.7362 32.5564 40.0067C32.5564 39.753 32.515 39.4837 32.7661 39.3051V39.3077Z" fill="#C1CFEA"/>
<path d="M18.5753 69.9234V74.3637C13.4386 70.2393 8.32519 70.203 3.2299 74.3145C3.0409 74.1902 3.11339 74.0141 3.11339 73.8692C3.10821 60.1238 3.09786 46.3758 3.11339 32.6305C3.11857 28.0711 6.75621 24.6121 11.2741 24.8141C11.6547 24.8322 12.0327 24.9409 12.4107 25.0083C12.4107 32.4596 12.4444 39.9135 12.3926 47.3649C12.3538 52.732 13.1745 57.9283 15.0878 62.9459C16.0199 65.3848 17.0737 67.7641 18.5727 69.9234H18.5753Z" fill="#A3B8E0"/>
<path d="M18.5753 69.9234C17.0763 67.7667 16.0225 65.3874 15.0905 62.9459C13.1745 57.9283 12.3564 52.7294 12.3952 47.3649C12.447 39.9135 12.4134 32.4596 12.4134 25.0083C15.7895 25.5675 18.4692 28.664 18.5883 32.1929C18.6375 33.6428 18.6064 35.0953 18.6064 36.5451C18.6064 47.2846 18.6064 58.0241 18.6064 68.7609C18.6064 69.1467 18.5857 69.5325 18.5753 69.9208V69.9234Z" fill="#C1CFEA"/>
<path d="M74.4708 36.3173C74.4708 30.7327 74.4837 25.1481 74.4552 19.5634C74.4526 18.854 74.6028 18.6314 75.3485 18.6469C77.4249 18.6883 77.4275 18.6495 77.4275 20.6871C77.4275 31.5016 77.4171 42.3136 77.4482 53.1281C77.4482 53.9566 77.2877 54.2285 76.4074 54.1948C74.4785 54.1197 74.4759 54.1741 74.4759 52.1986C74.4759 46.904 74.4759 41.6119 74.4759 36.3173H74.4708Z" fill="#DBF4A7"/>
<path d="M79.434 3.14357C82.3053 3.45426 84.2108 6.04851 83.7085 8.91202C83.6309 9.35992 83.372 9.29779 83.1001 9.2952C81.4975 9.28743 79.8948 9.27449 78.2922 9.26413C78.2586 7.14627 78.1213 5.01029 79.4366 3.14616L79.434 3.14357Z" fill="#6083C9"/>
<path d="M79.4341 3.14357C78.1214 5.0077 78.256 7.14627 78.2897 9.26154C77.1997 9.2719 76.1071 9.28743 75.0171 9.29261C74.7453 9.29261 74.4786 9.35734 74.388 8.91719C73.7537 5.80772 76.2521 2.93127 79.4341 3.14357Z" fill="#3864BB"/>
<path d="M82.8334 57.3846C82.8412 57.514 82.8515 57.5503 82.8412 57.5762C82.4657 58.4979 82.3156 59.6888 81.6424 60.2584C80.9977 60.8047 79.799 60.3957 78.8436 60.4034C76.3892 60.4267 76.3866 60.4112 75.5037 58.1458C75.4131 57.9127 75.338 57.672 75.2371 57.3846H82.8334Z" fill="#DBF4A7"/>
<path d="M78.1965 12.4694C79.8613 12.4461 81.5287 12.4305 83.1934 12.3943C83.5585 12.3865 83.6672 12.5134 83.7035 12.8836C83.9624 15.4908 83.9727 15.496 81.3656 15.4856C80.3092 15.4805 79.2529 15.4416 78.1991 15.4183C78.2923 14.4345 78.2975 13.4506 78.1991 12.4668L78.1965 12.4694Z" fill="#6083C9"/>
<path d="M78.1965 12.4694C78.2949 13.4532 78.2923 14.4371 78.1965 15.4209C77.135 15.4391 76.0605 15.5737 75.0171 15.4468C73.7226 15.2915 74.621 14.2196 74.4604 13.5956C74.3698 13.2383 73.997 12.3995 75.0145 12.415C76.076 12.4306 77.1375 12.4513 78.1965 12.4694Z" fill="#3864BB"/>
<path d="M43.4071 40.3537C45.2142 40.3537 47.0214 40.3796 48.8286 40.3407C49.4784 40.3252 49.5898 40.5711 49.5095 41.1407C49.0694 44.2476 46.5062 46.4846 43.3708 46.4768C40.4115 46.469 37.7137 44.0845 37.2917 41.1304C37.2088 40.5427 37.3564 40.3278 37.9856 40.3433C39.7927 40.3821 41.5999 40.3563 43.4071 40.3563V40.3537Z" fill="#3864BB"/>
<path d="M43.3734 30.9864C41.6957 30.9864 41.6879 30.9864 41.5093 29.376C41.2219 26.7843 40.9552 24.1875 40.6549 21.5984C40.585 21.0055 40.7196 20.7958 41.3048 21.0832C42.6873 21.7641 44.0725 21.7978 45.4654 21.1039C45.9288 20.8735 46.2395 20.8502 46.1541 21.5648C45.7994 24.5396 45.4758 27.517 45.1573 30.4945C45.1185 30.8595 44.9942 31.0097 44.6291 30.9916C44.2097 30.9735 43.7903 30.9864 43.3708 30.9864H43.3734Z" fill="#DBF4A7"/>
<path d="M52.6371 35.7037C52.5931 36.7031 51.9898 37.1639 51.0707 37.1665C45.9702 37.1847 40.8698 37.1821 35.7693 37.1691C34.7673 37.1665 34.1252 36.5296 34.1252 35.6442C34.1252 34.6474 34.8321 34.1192 36.1577 34.127C36.7195 35.2895 37.7189 35.67 38.9228 35.6726C43.4951 35.683 48.0648 35.6933 52.6371 35.7037Z" fill="#3864BB"/>
<path d="M52.6371 35.7037C48.0648 35.6933 43.4951 35.6856 38.9228 35.6726C37.7163 35.67 36.717 35.2895 36.1577 34.127C41.1132 34.1192 46.0687 34.1011 51.0241 34.1062C52.0831 34.1062 52.5465 34.6111 52.6371 35.7011V35.7037Z" fill="#6083C9"/>
<path d="M54.2656 62.0009C56.8314 62.006 58.9182 64.1317 58.8949 66.7181C58.8716 69.2399 56.7563 71.3189 54.2294 71.2982C51.6532 71.2775 49.5716 69.1571 49.5975 66.5809C49.6234 64.0566 51.7232 61.9957 54.263 62.0035L54.2656 62.0009ZM54.232 65.0974C53.3957 65.1078 52.707 65.8016 52.707 66.6379C52.707 67.513 53.4475 68.2276 54.3174 68.1887C55.1511 68.1525 55.8191 67.4353 55.7932 66.6016C55.7699 65.7654 55.0656 65.087 54.232 65.0974Z" fill="#323233"/>
<path d="M34.089 80.6033C34.0813 81.4525 33.3744 82.1283 32.52 82.105C31.7174 82.0817 31.052 81.4085 31.0365 80.6059C31.021 79.7489 31.7071 79.0499 32.5537 79.0551C33.3952 79.0602 34.0942 79.7645 34.089 80.6059V80.6033Z" fill="#DBF4A7"/>
<path d="M54.232 65.0948C55.0657 65.0845 55.7699 65.7628 55.7932 66.5991C55.8165 67.4353 55.1511 68.1499 54.3174 68.1862C53.4475 68.2224 52.7044 67.5078 52.707 66.6353C52.707 65.8016 53.3957 65.1078 54.232 65.0948Z" fill="#C1CFEA"/>
</svg>
