<svg width="128" height="19" viewBox="0 0 128 19" fill="none" xmlns="http://www.w3.org/2000/svg">
<path d="M10.175 18.15C8.75 18.15 8.15 17.15 8.1 15.5L7.95 15.475C7.35 16.95 5.7 18.25 3.975 18.25C1.825 18.25 0.625 16.9 0.625 15.45C0.625 14.025 2.925 13.025 8.075 11.95V11.525C8.075 7.5 7.675 6.625 5.8 6.625C4.225 6.625 3.45 7.35 3.45 8.875C3.45 9.4 3.525 10.275 3.6 10.975L1.1 11.35C0.95 7.625 4.4 5.775 7.025 5.775C9.375 5.775 10.6 6.8 10.6 9.075C10.575 9.95 10.525 11.475 10.525 12.55C10.525 15.95 10.65 16.45 11.225 16.45C11.85 16.45 12.15 15.8 12.375 12.975L12.675 13C12.425 16.65 11.65 18.15 10.175 18.15ZM5.575 16.325C6.6 16.325 7.8 15.85 7.95 14.825C8.05 14.3 8.075 13.875 8.075 12.55C6.425 12.775 4.95 13.05 3.85 13.4C3.25 13.575 2.95 13.825 2.95 14.4C2.95 15.6 3.825 16.325 5.575 16.325ZM15.0424 11.725C15.0424 3.375 15.0174 3.2 14.2174 3.025L13.1424 2.825V2.45C15.6924 2 16.5924 1.7 17.2674 0.949999L17.5674 1C17.5424 3.625 17.5424 6.175 17.5424 8.825C17.5424 16.975 17.5424 17.1 18.2674 17.3L19.4924 17.575V18H13.1174V17.575L14.0924 17.425C15.0674 17.225 15.0424 16.925 15.0424 11.725ZM22.6516 4.1C21.7516 4.1 21.1516 3.675 21.1516 2.875C21.1516 1.85 21.9766 1.375 23.2516 1.375C24.1516 1.375 24.7516 1.775 24.7516 2.575C24.7516 3.6 23.9266 4.1 22.6516 4.1ZM24.4266 10.925C24.4266 17.05 24.5016 17.175 25.2016 17.35L26.4266 17.575L26.4016 18H20.0766V17.575L20.9266 17.4C21.9516 17.175 21.9516 17.025 21.9516 12.625C21.9516 7.95 21.9266 7.825 21.1266 7.675L20.0766 7.475V7.125C21.7766 6.75 23.1016 6.35 24.2266 5.85L24.4766 5.95C24.4516 7.75 24.4266 9.225 24.4266 10.925ZM32.7346 6.475C30.8596 6.525 29.8846 7.8 29.8846 10.825C29.8846 14.425 31.6346 16.25 34.1346 16.25C36.2346 16.25 37.4096 15.55 38.1346 13.375L38.3846 13.575C37.7096 16.35 36.3096 18.25 33.0346 18.25C29.6346 18.25 27.3596 16.075 27.3596 12.05C27.3596 8.325 30.2596 5.775 34.2846 5.775C36.4096 5.775 37.7346 6.325 38.2346 6.65C38.0846 7.9 37.9596 9.525 37.9096 11.3H37.5346L37.0596 9.55C36.4096 7.25 34.8596 6.475 32.7346 6.475ZM45.6328 6.325C43.7078 6.325 42.7078 7.6 42.5828 10.525L48.1328 10.2C48.6328 10.15 48.7578 9.875 48.7578 9.475C48.7578 7.65 47.4078 6.325 45.6328 6.325ZM46.6078 5.775C49.7828 5.775 51.3078 7.4 51.2328 10.3L48.8828 10.8L42.5828 10.7C42.5828 10.8 42.5828 10.925 42.5828 11.05C42.5828 14.85 44.3078 16.275 46.8828 16.275C48.9828 16.275 50.2578 15.425 51.0828 13.1L51.3328 13.3C50.5328 16.35 49.1078 18.25 45.7578 18.25C42.2828 18.25 39.9328 16.075 39.9328 11.925C39.9328 8.225 42.4078 5.775 46.6078 5.775ZM58.2553 11.725C58.2553 3.375 58.2303 3.2 57.4303 3.025L56.3553 2.825V2.45C58.9053 2 59.8053 1.7 60.4803 0.949999L60.7803 1C60.7553 3.625 60.7553 6.175 60.7553 8.825C60.7553 16.975 60.7553 17.1 61.4803 17.3L62.7053 17.575V18H56.3303V17.575L57.3053 17.425C58.2803 17.225 58.2553 16.925 58.2553 11.725ZM65.8645 4.1C64.9645 4.1 64.3645 3.675 64.3645 2.875C64.3645 1.85 65.1895 1.375 66.4645 1.375C67.3645 1.375 67.9645 1.775 67.9645 2.575C67.9645 3.6 67.1395 4.1 65.8645 4.1ZM67.6395 10.925C67.6395 17.05 67.7145 17.175 68.4145 17.35L69.6395 17.575L69.6145 18H63.2895V17.575L64.1395 17.4C65.1645 17.175 65.1645 17.025 65.1645 12.625C65.1645 7.95 65.1395 7.825 64.3395 7.675L63.2895 7.475V7.125C64.9895 6.75 66.3145 6.35 67.4395 5.85L67.6895 5.95C67.6645 7.75 67.6395 9.225 67.6395 10.925ZM77.8225 17.575C80.0225 17.575 80.8475 16.35 80.8475 12.525C80.8475 8.85 79.9225 7.4 77.5975 7.4C76.0225 7.4 74.4225 8.275 74.4225 10.525C74.4225 14.275 74.4975 15.625 74.6225 16.75C75.5975 17.225 76.4975 17.575 77.8225 17.575ZM77.4975 18.25C75.6975 18.25 73.9975 17.55 72.8475 16.725C72.4725 17.25 72.1225 17.775 72.0725 18.05L71.7475 18.025C71.9225 16.625 71.9475 14.4 71.9475 11.8C71.9475 3.4 71.9225 3.2 71.1225 3.025L70.0725 2.825V2.45C72.5475 2.025 73.5475 1.725 74.1975 0.949999L74.4475 1C74.3975 4.35 74.3225 7.125 74.3225 9.2H74.4475C74.8725 7.55 76.7475 5.775 79.2475 5.775C82.4975 5.775 83.5225 8 83.5225 11.05C83.5225 15.15 80.8975 18.25 77.4975 18.25ZM94.4035 18.15C92.9785 18.15 92.3785 17.15 92.3285 15.5L92.1785 15.475C91.5785 16.95 89.9285 18.25 88.2035 18.25C86.0535 18.25 84.8535 16.9 84.8535 15.45C84.8535 14.025 87.1535 13.025 92.3035 11.95V11.525C92.3035 7.5 91.9035 6.625 90.0285 6.625C88.4535 6.625 87.6785 7.35 87.6785 8.875C87.6785 9.4 87.7535 10.275 87.8285 10.975L85.3285 11.35C85.1785 7.625 88.6285 5.775 91.2535 5.775C93.6035 5.775 94.8285 6.8 94.8285 9.075C94.8035 9.95 94.7535 11.475 94.7535 12.55C94.7535 15.95 94.8785 16.45 95.4535 16.45C96.0785 16.45 96.3785 15.8 96.6035 12.975L96.9035 13C96.6535 16.65 95.8785 18.15 94.4035 18.15ZM89.8035 16.325C90.8285 16.325 92.0285 15.85 92.1785 14.825C92.2785 14.3 92.3035 13.875 92.3035 12.55C90.6535 12.775 89.1785 13.05 88.0785 13.4C87.4785 13.575 87.1785 13.825 87.1785 14.4C87.1785 15.6 88.0535 16.325 89.8035 16.325ZM99.3209 12.675C99.3209 7.95 99.2959 7.825 98.5209 7.675L97.4459 7.475V7.125C98.9459 6.8 100.421 6.325 101.396 5.875L101.646 5.95C101.646 7.325 101.621 8.825 101.621 10.325L101.771 10.35C102.371 7.8 103.746 5.75 106.071 5.7C106.121 6.55 106.171 7.775 106.171 8.675C105.796 8.625 105.221 8.575 104.796 8.575C103.146 8.575 101.796 9.425 101.796 11.525C101.796 17.025 101.896 17.175 102.521 17.275L104.671 17.575V18H97.4459V17.575L98.4709 17.375C99.2709 17.2 99.3209 16.95 99.3209 12.675ZM116.489 13.475C116.489 10.675 116.489 8.625 116.464 7.125C114.814 6.55 113.764 6.45 112.814 6.45C110.989 6.45 110.014 8.175 110.014 11.725C110.014 15.325 110.914 16.55 113.114 16.55C114.789 16.55 116.489 15.775 116.489 13.475ZM116.689 18C116.639 17.1 116.614 16.125 116.614 14.875L116.489 14.85C116.039 16.5 114.114 18.25 111.664 18.25C108.614 18.25 107.389 15.975 107.389 12.925C107.389 8.55 109.789 5.8 113.964 5.8C114.664 5.8 115.514 5.9 116.464 6.175C116.389 3.125 116.214 3.025 115.639 2.95L114.239 2.775V2.45C116.514 2.1 118.014 1.625 118.714 0.924999L119.039 1C119.014 2.875 118.989 4.925 118.989 10.1C118.989 16.875 119.064 17 120.064 17.35L120.914 17.575V18H116.689ZM124.043 4.1C123.143 4.1 122.543 3.675 122.543 2.875C122.543 1.85 123.368 1.375 124.643 1.375C125.543 1.375 126.143 1.775 126.143 2.575C126.143 3.6 125.318 4.1 124.043 4.1ZM125.818 10.925C125.818 17.05 125.893 17.175 126.593 17.35L127.818 17.575L127.793 18H121.468V17.575L122.318 17.4C123.343 17.175 123.343 17.025 123.343 12.625C123.343 7.95 123.318 7.825 122.518 7.675L121.468 7.475V7.125C123.168 6.75 124.493 6.35 125.618 5.85L125.868 5.95C125.843 7.75 125.818 9.225 125.818 10.925Z" fill="#182A4F"/>
</svg>
